<?xml version="1.0" encoding="UTF-8"?>
<svg xmlns="http://www.w3.org/2000/svg" xmlns:xlink="http://www.w3.org/1999/xlink" width="50pt" height="50pt" viewBox="0 0 50 50" version="1.1">
<g id="surface1">
<path style=" stroke:none;fill-rule:nonzero;fill:#000000;fill-opacity:1;" d="M 24.648438 3.410156 C 24.34375 3.457031 24.082031 3.640625 23.933594 3.90625 L 0.125 45.140625 C -0.0546875 45.449219 -0.0546875 45.828125 0.128906 46.136719 C 0.304688 46.441406 0.636719 46.628906 0.992188 46.628906 L 48.609375 46.628906 C 48.96875 46.628906 49.296875 46.441406 49.476563 46.136719 C 49.65625 45.828125 49.65625 45.449219 49.480469 45.140625 L 25.667969 3.90625 C 25.46875 3.542969 25.058594 3.34375 24.648438 3.410156 Z M 24.800781 6.386719 L 46.875 44.644531 L 2.726563 44.644531 Z M 23.65625 18.757813 C 23.441406 18.757813 23.3125 18.882813 23.3125 19.097656 L 23.3125 33.449219 C 23.3125 33.664063 23.441406 33.824219 23.65625 33.824219 L 25.949219 33.824219 C 26.160156 33.824219 26.289063 33.664063 26.289063 33.449219 L 26.289063 19.097656 C 26.289063 18.882813 26.160156 18.757813 25.949219 18.757813 Z M 23.4375 36.675781 C 23.304688 36.726563 23.25 36.859375 23.25 37.015625 L 23.25 39.621094 C 23.25 39.832031 23.378906 39.960938 23.59375 39.960938 L 26.011719 39.960938 C 26.222656 39.960938 26.351563 39.832031 26.351563 39.621094 L 26.351563 37.015625 C 26.351563 36.804688 26.222656 36.675781 26.011719 36.675781 L 23.59375 36.675781 C 23.539063 36.675781 23.480469 36.660156 23.4375 36.675781 Z "/>
</g>
</svg>
