<svg width="240" height="120" viewBox="0 0 240 120" fill="none" xmlns="http://www.w3.org/2000/svg">
<rect x="10" y="10" width="220" height="100" fill="#191927" fill-opacity="0.03" stroke="#C5C5D2"/>
<rect x="15" y="47" width="10" height="10" rx="5" transform="rotate(180 15 47)" fill="#A5CFE4"/>
<rect x="15" y="15" width="10" height="10" rx="5" transform="rotate(180 15 15)" fill="#21B5C2"/>
<rect x="15" y="83.3359" width="10" height="10" rx="5" transform="rotate(180 15 83.3359)" fill="#5436DA"/>
<rect x="15" y="115.004" width="10" height="10" rx="5" transform="rotate(180 15 115.004)" fill="#FF5828"/>
<rect x="88.334" y="47" width="10" height="10" rx="5" transform="rotate(180 88.334 47)" fill="#A5CFE4"/>
<rect x="88.334" y="15" width="10" height="10" rx="5" transform="rotate(180 88.334 15)" fill="#21B5C2"/>
<rect x="88.334" y="83.3359" width="10" height="10" rx="5" transform="rotate(180 88.334 83.3359)" fill="#5436DA"/>
<rect x="88.334" y="115.004" width="10" height="10" rx="5" transform="rotate(180 88.334 115.004)" fill="#FF5828"/>
<rect x="161.667" y="47" width="10" height="10" rx="5" transform="rotate(180 161.667 47)" fill="#A5CFE4"/>
<rect x="161.667" y="15" width="10" height="10" rx="5" transform="rotate(180 161.667 15)" fill="#21B5C2"/>
<rect x="161.667" y="83.3359" width="10" height="10" rx="5" transform="rotate(180 161.667 83.3359)" fill="#5436DA"/>
<rect x="161.667" y="115.004" width="10" height="10" rx="5" transform="rotate(180 161.667 115.004)" fill="#FF5828"/>
<rect x="235" y="47" width="10" height="10" rx="5" transform="rotate(180 235 47)" fill="#A5CFE4"/>
<rect x="235" y="15" width="10" height="10" rx="5" transform="rotate(180 235 15)" fill="#21B5C2"/>
<rect x="235" y="83.3359" width="10" height="10" rx="5" transform="rotate(180 235 83.3359)" fill="#5436DA"/>
<rect x="235" y="115.004" width="10" height="10" rx="5" transform="rotate(180 235 115.004)" fill="#FF5828"/>
</svg>
